<?xml version="1.0" standalone="no"?><!DOCTYPE svg PUBLIC "-//W3C//DTD SVG 1.1//EN" "http://www.w3.org/Graphics/SVG/1.1/DTD/svg11.dtd"><svg t="1512276761961" class="icon" style="" viewBox="0 0 1024 1024" version="1.1" xmlns="http://www.w3.org/2000/svg" p-id="1565" xmlns:xlink="http://www.w3.org/1999/xlink" width="128" height="128"><defs><style type="text/css"></style></defs><path d="M536.275554 0c27.417097 49.836285 44.409985 116.808255 44.409985 191.062892 0 153.221587-71.684284 277.598103-160.218659 277.598104-68.971134 0-127.232464-75.968205-149.937247-181.92386C190.420304 399.975457 122.877144 534.062195 122.877144 666.720959c0 197.345977 174.212802 357.279041 389.122856 357.279041S901.122856 864.066936 901.122856 666.720959C901.122856 308.442337 550.555292 11.99498 536.275554 0z m-21.134012 938.607168c-131.087993 0-170.214475-101.528936-163.502998-142.511784 13.422954-81.537303 93.960675-94.960257 154.935156-94.960256 144.796542 0 203.057872-150.794032 206.627806-189.777716 0 0 52.121043 427.249756-198.059964 427.249756z" fill="#FF9A00" p-id="1566"></path></svg>